<svg width="44" height="44" viewBox="0 0 44 44" fill="none" xmlns="http://www.w3.org/2000/svg">
<circle cx="22" cy="22" r="22" fill="#0094FF"/>
<path d="M31 21.1771V22.0051C30.9989 23.9459 30.3704 25.8344 29.2084 27.3888C28.0463 28.9432 26.413 30.0804 24.5518 30.6307C22.6907 31.1809 20.7015 31.1149 18.881 30.4423C17.0605 29.7697 15.5062 28.5266 14.4499 26.8985C13.3935 25.2704 12.8918 23.3444 13.0195 21.4078C13.1472 19.4713 13.8975 17.6278 15.1585 16.1525C16.4194 14.6772 18.1235 13.649 20.0166 13.2213C21.9096 12.7936 23.8902 12.9893 25.663 13.7792M31 14.8052L22 23.8142L19.3 21.1142" stroke="white" stroke-width="2" stroke-linecap="round" stroke-linejoin="round"/>
</svg>
