<svg width="20" height="20" viewBox="0 0 20 20" fill="none" xmlns="http://www.w3.org/2000/svg">
<g clip-path="url(#clip0)">
<path d="M15.625 20H4.375C1.95875 20 0 18.0413 0 15.625V4.375C0 1.95875 1.95875 0 4.375 0H15.625C18.0413 0 20 1.95875 20 4.375V15.625C20 18.0413 18.0413 20 15.625 20Z" fill="#41479B"/>
<path d="M20.0002 15.6246V14.6641L16.8979 12.6316H20.0002V11.5789H11.5791V20H12.6317V13.6117L19.3088 17.9863C19.5452 17.6182 19.7278 17.2121 19.8459 16.7795" fill="#F5F5F5"/>
<path d="M0.29418 17.2048C0.400742 17.4798 0.534102 17.7414 0.691367 17.9863L7.3684 13.6117V20H8.42102V11.5789H0V12.6316H3.1023L0 14.6641V15.625C0 15.7932 0.00984375 15.9591 0.0283203 16.1224" fill="#F5F5F5"/>
<path d="M0 4.52371V5.33586L3.1023 7.36844H0V8.42105H8.42105V0H7.36844V6.38828L0.691367 2.01367C0.431875 2.4177 0.237227 2.86727 0.121641 3.34766" fill="#F5F5F5"/>
<path d="M19.7002 2.78004C19.5946 2.51055 19.4632 2.25402 19.3088 2.01363L12.6317 6.38828V0H11.5791V8.42105H20.0002V7.36844H16.8979L20.0002 5.33586V4.375C20.0002 4.20078 19.9896 4.02898 19.9698 3.86008" fill="#F5F5F5"/>
<path d="M11.5789 0H8.42105V8.42105H0V11.5789H8.42105V20H11.5789V11.5789H20V8.42105H11.5789V0Z" fill="#FF4B55"/>
<path d="M5.40605 12.6316L0.0283203 16.1224C0.0710547 16.4998 0.16168 16.8627 0.294219 17.2048L7.33949 12.6316H5.40605V12.6316Z" fill="#FF4B55"/>
<path d="M13.4561 12.6316L19.8461 16.7795C19.9465 16.4116 20.0004 16.0246 20.0004 15.625V15.6246L15.3895 12.6316L13.4561 12.6316Z" fill="#FF4B55"/>
<path d="M6.31578 7.36844L0.121641 3.34766C0.0423047 3.67719 0 4.02113 0 4.375V4.52371L4.38234 7.36844H6.31578Z" fill="#FF4B55"/>
<path d="M14.5647 7.36845L19.9694 3.86009C19.9253 3.48337 19.8335 3.12126 19.6998 2.78009L12.6313 7.36845H14.5647Z" fill="#FF4B55"/>
</g>
<defs>
<clipPath id="clip0">
<rect width="20" height="20" fill="white"/>
</clipPath>
</defs>
</svg>
