<svg width="27" height="25" xmlns="http://www.w3.org/2000/svg">
 <defs>
  <linearGradient y2="0" x2="0.5" y1="0" x1="0.499" id="svg_5">
   <stop offset="0" stop-color="#FFDD3C"/>
   <stop offset="1" stop-color="#4C4D51"/>
   <stop offset="1" stop-color="#4C4D51"/>
  </linearGradient>
 </defs>
 <g>
  <title>background</title>
  <rect fill="none" id="canvas_background" height="27" width="28" y="-1" x="-1"/>
 </g>
 <g>
  <title>Layer 1</title>
  <path stroke="null" fill="url(#svg_5)" id="svg_1" d="m24.508369,9.544116q0,0.302902 -0.364376,0.660876l-5.087249,4.873963l1.205244,6.884128q0.014014,0.096378 0.014014,0.275365q0,0.289133 -0.147152,0.488773t-0.427441,0.19964q-0.266275,0 -0.560578,-0.165219l-6.292493,-3.249309l-6.292493,3.249309q-0.308318,0.165219 -0.560578,0.165219q-0.294304,0 -0.441456,-0.19964t-0.147152,-0.488773q0,-0.08261 0.028029,-0.275365l1.205244,-6.884128l-5.101264,-4.873963q-0.350362,-0.371743 -0.350362,-0.660876q0,-0.509426 0.78481,-0.63334l7.035259,-1.005083l3.153254,-6.264557q0.266275,-0.564499 0.686709,-0.564499t0.686709,0.564499l3.153254,6.264557l7.035259,1.005083q0.78481,0.123914 0.78481,0.63334z"/>
 </g>
</svg>