<svg width="44" height="44" viewBox="0 0 44 44" fill="none" xmlns="http://www.w3.org/2000/svg">
<circle cx="22" cy="22" r="22" fill="#0094FF"/>
<path d="M14 27.3333V22C14 19.8783 14.8429 17.8434 16.3431 16.3431C17.8434 14.8429 19.8783 14 22 14C24.1217 14 26.1566 14.8429 27.6569 16.3431C29.1571 17.8434 30 19.8783 30 22V27.3333M30 28.2222C30 28.6937 29.8127 29.1459 29.4793 29.4793C29.1459 29.8127 28.6937 30 28.2222 30H27.3333C26.8618 30 26.4097 29.8127 26.0763 29.4793C25.7429 29.1459 25.5556 28.6937 25.5556 28.2222V25.5556C25.5556 25.0841 25.7429 24.6319 26.0763 24.2985C26.4097 23.9651 26.8618 23.7778 27.3333 23.7778H30V28.2222ZM14 28.2222C14 28.6937 14.1873 29.1459 14.5207 29.4793C14.8541 29.8127 15.3063 30 15.7778 30H16.6667C17.1382 30 17.5903 29.8127 17.9237 29.4793C18.2571 29.1459 18.4444 28.6937 18.4444 28.2222V25.5556C18.4444 25.0841 18.2571 24.6319 17.9237 24.2985C17.5903 23.9651 17.1382 23.7778 16.6667 23.7778H14V28.2222Z" stroke="white" stroke-width="2" stroke-linecap="round" stroke-linejoin="round"/>
</svg>
