<svg width="20" height="20" viewBox="0 0 20 20" fill="none" xmlns="http://www.w3.org/2000/svg">
<path d="M15.9304 0.0107727H4.06965C1.7959 0.16757 0 2.0614 0 4.37499V6.67027H20V4.37499C20 2.0614 18.2041 0.16757 15.9304 0.0107727Z" fill="#FAB446"/>
<path d="M0 15.625C0 17.9386 1.79594 19.8324 4.06969 19.9892H15.9303C18.2041 19.8324 20 17.9386 20 15.625V13.3297H0V15.625Z" fill="#73AF00"/>
<path d="M20 6.67029H0V13.3297H20V6.67029Z" fill="#F5F5F5"/>
<path d="M10.0004 12.2831C8.74146 12.2831 7.71729 11.259 7.71729 10C7.71729 8.74107 8.74146 7.71689 10.0004 7.71689C11.2594 7.71689 12.2835 8.74107 12.2835 10C12.2835 11.259 11.2594 12.2831 10.0004 12.2831ZM10.0004 8.14165C8.97561 8.14165 8.14205 8.97521 8.14205 10C8.14205 11.0248 8.97561 11.8584 10.0004 11.8584C11.0252 11.8584 11.8588 11.0248 11.8588 10C11.8588 8.97521 11.0252 8.14165 10.0004 8.14165Z" fill="#41479B"/>
<path d="M10.0005 10.2588C10.1435 10.2588 10.2594 10.1429 10.2594 9.99998C10.2594 9.85703 10.1435 9.74115 10.0005 9.74115C9.85758 9.74115 9.7417 9.85703 9.7417 9.99998C9.7417 10.1429 9.85758 10.2588 10.0005 10.2588Z" fill="#41479B"/>
<path d="M10.0004 10.0388L9.34266 10.1052L7.92969 10.0388V9.96115L9.34266 9.89474L10.0004 9.96115V10.0388Z" fill="#41479B"/>
<path d="M10 10.0388L10.6578 10.1052L12.0707 10.0388V9.96115L10.6578 9.89474L10 9.96115V10.0388Z" fill="#41479B"/>
<path d="M9.96191 10L9.89551 9.34224L9.96191 7.92926H10.0396L10.106 9.34224L10.0396 10H9.96191Z" fill="#41479B"/>
<path d="M9.96191 10L9.89551 10.6578L9.96191 12.0707H10.0396L10.106 10.6578L10.0396 10H9.96191Z" fill="#41479B"/>
<path d="M9.97251 10.0275L9.46044 9.60933L8.5083 8.56324L8.56318 8.50836L9.60927 9.4605L10.0274 9.97257L9.97251 10.0275Z" fill="#41479B"/>
<path d="M9.97266 10.0275L10.3908 10.5396L11.4369 11.4917L11.4918 11.4368L10.5396 10.3907L10.0276 9.97256L9.97266 10.0275Z" fill="#41479B"/>
<path d="M9.97266 9.97257L10.3908 9.4605L11.4369 8.50836L11.4918 8.56324L10.5396 9.60933L10.0276 10.0275L9.97266 9.97257Z" fill="#41479B"/>
<path d="M9.97251 9.97256L9.46044 10.3907L8.5083 11.4368L8.56318 11.4917L9.60927 10.5396L10.0274 10.0275L9.97251 9.97256Z" fill="#41479B"/>
<path d="M10.0156 10.0358L9.43329 10.3489L8.10244 10.8283L8.07275 10.7565L9.35274 10.1545L9.98586 9.96411L10.0156 10.0358Z" fill="#41479B"/>
<path d="M10.0155 10.0359L10.6487 9.84553L11.9287 9.24345L11.899 9.17169L10.5681 9.65108L9.98584 9.96417L10.0155 10.0359Z" fill="#41479B"/>
<path d="M9.96435 10.0148L9.65126 9.43259L9.17188 8.10174L9.24363 8.07205L9.84571 9.35204L10.0361 9.98516L9.96435 10.0148Z" fill="#41479B"/>
<path d="M9.96484 10.0149L10.1552 10.648L10.7573 11.928L10.829 11.8983L10.3496 10.5674L10.0366 9.98517L9.96484 10.0149Z" fill="#41479B"/>
<path d="M9.98586 10.0359L9.35274 9.84553L8.07275 9.24345L8.10244 9.17169L9.43329 9.65108L10.0156 9.96417L9.98586 10.0359Z" fill="#41479B"/>
<path d="M9.98584 10.0358L10.5681 10.3489L11.899 10.8283L11.9287 10.7565L10.6487 10.1545L10.0155 9.96411L9.98584 10.0358Z" fill="#41479B"/>
<path d="M9.96484 9.98516L10.1552 9.35204L10.7573 8.07205L10.829 8.10174L10.3496 9.43259L10.0366 10.0148L9.96484 9.98516Z" fill="#41479B"/>
<path d="M9.96435 9.98517L9.65126 10.5674L9.17188 11.8983L9.24363 11.928L9.84571 10.648L10.0361 10.0149L9.96435 9.98517Z" fill="#41479B"/>
<path d="M11.2835 17.567C11.44 17.567 11.567 17.44 11.567 17.2835C11.567 17.1269 11.44 17 11.2835 17C11.1269 17 11 17.1269 11 17.2835C11 17.44 11.1269 17.567 11.2835 17.567Z" fill="#F5F5F5"/>
<path d="M9.99986 10.2093C10.1155 10.2093 10.2092 10.1156 10.2092 10C10.2092 9.8844 10.1155 9.79068 9.99986 9.79068C9.88425 9.79068 9.79053 9.8844 9.79053 10C9.79053 10.1156 9.88425 10.2093 9.99986 10.2093Z" fill="#41479B"/>
</svg>
