<svg width="23" height="30" viewBox="0 0 23 30" fill="none" xmlns="http://www.w3.org/2000/svg">
    <path d="M11.0042 0H1.04817C0.686563 0 0.519261 0.449152 0.79275 0.685717L5.72497 4.95201C5.93781 5.13611 6.20982 5.23743 6.49123 5.23743H11.0463C12.3674 5.23743 13.4074 5.64246 14.1663 6.45251C14.9533 7.26257 15.3468 8.24022 15.3468 9.38548C15.3468 10.5866 14.9393 11.5782 14.1241 12.3603C13.309 13.1425 12.255 13.5335 10.962 13.5335H6.76092C6.47873 13.5335 6.20602 13.6354 5.99296 13.8204L0.403325 18.6742C0.147134 18.8966 0 19.2193 0 19.5586V29.2191C0 29.6504 0.349601 30 0.780856 30H5.64266C6.07392 30 6.42352 29.6504 6.42352 29.2191V19.5099C6.42352 19.0786 6.77312 18.729 7.20438 18.729H7.73416C8.11858 18.729 8.47854 18.9177 8.6973 19.2338L15.7986 29.4952C16.0173 29.8114 16.3773 30 16.7617 30H22.4282C22.5689 30 22.6829 29.886 22.6829 29.7453V29.7453C22.6829 29.6929 22.6668 29.6418 22.6366 29.5989L14.6557 18.2389C14.6121 18.177 14.5939 18.1007 14.6047 18.0258V18.0258C14.6203 17.9171 14.6947 17.8261 14.7974 17.7873C16.5775 17.1134 18.0536 16.0586 19.2257 14.6229C20.4624 13.1145 21.0808 11.3966 21.0808 9.46927C21.0808 7.65363 20.6592 6.03352 19.8159 4.60894C18.9727 3.15642 17.7781 2.02514 16.2322 1.21508C14.7144 0.405028 12.9717 0 11.0042 0Z" fill="white"/>
    <path d="M7.48651 9.84935C7.65869 9.69409 7.65843 9.42387 7.48595 9.26894L0.651446 3.12983C0.400111 2.90406 0.000116922 3.08244 0.000116918 3.42028L0.000116771 15.7224C0.000116767 16.0606 0.400844 16.2388 0.652008 16.0123L7.48651 9.84935Z" fill="#20C075"/>
</svg>
