<svg width="183" height="32" viewBox="0 0 183 32" fill="none" xmlns="http://www.w3.org/2000/svg">
    <path d="M25.1541 0H6.8459C3.06885 0 0 3.06885 0 6.8459V25.1541C0 28.9311 3.06885 32 6.8459 32H25.1541C28.9311 32 32 28.9311 32 25.1541V6.8459C32 3.06885 28.9311 0 25.1541 0Z" fill="#2F4765"/>
    <path d="M15.9533 7.83868H10.258C10.0512 7.83868 9.95549 8.09562 10.1119 8.23094L12.9334 10.6714C13.0551 10.7768 13.2107 10.8347 13.3717 10.8347H15.9774C16.7331 10.8347 17.328 11.0664 17.7622 11.5298C18.2124 11.9932 18.4375 12.5524 18.4375 13.2076C18.4375 13.8947 18.2043 14.4619 17.7381 14.9093C17.2718 15.3567 16.6688 15.5804 15.9292 15.5804H13.526C13.3646 15.5804 13.2086 15.6387 13.0867 15.7446L9.88917 18.5211C9.74261 18.6484 9.65845 18.8329 9.65845 19.027V24.5533C9.65845 24.8 9.85843 25 10.1051 25H12.8863C13.133 25 13.333 24.8 13.333 24.5533V18.9992C13.333 18.7525 13.533 18.5525 13.7797 18.5525H14.0827C14.3026 18.5525 14.5085 18.6604 14.6337 18.8412L18.6959 24.7112C18.8211 24.8921 19.027 25 19.2469 25H22.4884C22.5688 25 22.6341 24.9348 22.6341 24.8543V24.8543C22.6341 24.8243 22.6248 24.7951 22.6076 24.7705L18.0421 18.2721C18.0172 18.2367 18.0068 18.1931 18.013 18.1502V18.1502C18.0219 18.088 18.0645 18.036 18.1232 18.0138C19.1415 17.6283 19.9859 17.0249 20.6564 16.2036C21.3638 15.3408 21.7176 14.3581 21.7176 13.2555C21.7176 12.2169 21.4764 11.2901 20.994 10.4752C20.5117 9.64429 19.8283 8.99715 18.944 8.53376C18.0757 8.07038 17.0788 7.83868 15.9533 7.83868Z" fill="white"/>
    <path d="M13.9411 13.4729C14.0396 13.3841 14.0395 13.2295 13.9408 13.1409L10.0312 9.62903C9.88739 9.49989 9.65858 9.60193 9.65858 9.79519L9.65858 16.8325C9.65858 17.026 9.88781 17.1279 10.0315 16.9984L13.9411 13.4729Z" fill="#20C075"/>
    <path d="M47.9345 23C46.6153 23 45.4269 22.7202 44.3692 22.1607C43.3234 21.6012 42.4974 20.8274 41.8913 19.8393C41.2971 18.8512 41 17.7381 41 16.5C41 15.2619 41.2971 14.1488 41.8913 13.1607C42.4974 12.1726 43.3234 11.3988 44.3692 10.8393C45.4269 10.2798 46.6153 10 47.9345 10C49.2536 10 50.4361 10.2798 51.482 10.8393C52.5397 11.3988 53.3656 12.1726 53.9598 13.1607C54.5659 14.1488 54.869 15.2619 54.869 16.5C54.869 17.7381 54.5659 18.8512 53.9598 19.8393C53.3656 20.8274 52.5397 21.6012 51.482 22.1607C50.4361 22.7202 49.2536 23 47.9345 23ZM47.9345 20.0714C48.5644 20.0714 49.1348 19.9226 49.6458 19.625C50.1569 19.3274 50.5609 18.9107 50.858 18.375C51.1551 17.8274 51.3037 17.2024 51.3037 16.5C51.3037 15.7976 51.1551 15.1786 50.858 14.6429C50.5609 14.0952 50.1569 13.6726 49.6458 13.375C49.1348 13.0774 48.5644 12.9286 47.9345 12.9286C47.3046 12.9286 46.7342 13.0774 46.2232 13.375C45.7121 13.6726 45.3081 14.0952 45.011 14.6429C44.7138 15.1786 44.5653 15.7976 44.5653 16.5C44.5653 17.2024 44.7138 17.8274 45.011 18.375C45.3081 18.9107 45.7121 19.3274 46.2232 19.625C46.7342 19.9226 47.3046 20.0714 47.9345 20.0714Z" fill="white"/>
    <path d="M57.0742 10.25H60.6038V19.9464H66.5578V22.75H57.0742V10.25Z" fill="white"/>
    <path d="M73.7252 18.2679V22.75H70.1956V18.2143L65.4359 10.25H69.1616L72.1208 15.2143L75.08 10.25H78.5027L73.7252 18.2679Z" fill="white"/>
    <path d="M90.971 22.75L90.9354 16.125L87.7266 21.5179H86.1579L82.967 16.3036V22.75H79.7047V10.25H82.6104L86.9957 17.4643L91.2741 10.25H94.1798L94.2155 22.75H90.971Z" fill="white"/>
    <path d="M102.774 10.25C103.903 10.25 104.883 10.4405 105.715 10.8214C106.547 11.1905 107.189 11.7262 107.641 12.4286C108.092 13.119 108.318 13.9345 108.318 14.875C108.318 15.8155 108.092 16.631 107.641 17.3214C107.189 18.0119 106.547 18.5476 105.715 18.9286C104.883 19.2976 103.903 19.4821 102.774 19.4821H100.599V22.75H97.0695V10.25H102.774ZM102.56 16.6964C103.285 16.6964 103.832 16.5417 104.2 16.2321C104.568 15.9107 104.753 15.4583 104.753 14.875C104.753 14.2917 104.568 13.8393 104.2 13.5179C103.832 13.1964 103.285 13.0357 102.56 13.0357H100.599V16.6964H102.56Z" fill="white"/>
    <path d="M120.154 19.4286H118.229V22.75H114.699V10.25H120.404C121.533 10.25 122.513 10.4405 123.345 10.8214C124.177 11.1905 124.819 11.7262 125.27 12.4286C125.722 13.119 125.948 13.9345 125.948 14.875C125.948 15.7798 125.734 16.5714 125.306 17.25C124.89 17.9167 124.29 18.4405 123.505 18.8214L126.197 22.75H122.418L120.154 19.4286ZM122.382 14.875C122.382 14.2917 122.198 13.8393 121.83 13.5179C121.461 13.1964 120.915 13.0357 120.19 13.0357H118.229V16.6964H120.19C120.915 16.6964 121.461 16.5417 121.83 16.2321C122.198 15.9107 122.382 15.4583 122.382 14.875Z" fill="#20C075"/>
    <path d="M134.544 23C133.225 23 132.037 22.7202 130.979 22.1607C129.933 21.6012 129.107 20.8274 128.501 19.8393C127.907 18.8512 127.61 17.7381 127.61 16.5C127.61 15.2619 127.907 14.1488 128.501 13.1607C129.107 12.1726 129.933 11.3988 130.979 10.8393C132.037 10.2798 133.225 10 134.544 10C135.863 10 137.046 10.2798 138.092 10.8393C139.149 11.3988 139.975 12.1726 140.57 13.1607C141.176 14.1488 141.479 15.2619 141.479 16.5C141.479 17.7381 141.176 18.8512 140.57 19.8393C139.975 20.8274 139.149 21.6012 138.092 22.1607C137.046 22.7202 135.863 23 134.544 23ZM134.544 20.0714C135.174 20.0714 135.745 19.9226 136.256 19.625C136.767 19.3274 137.171 18.9107 137.468 18.375C137.765 17.8274 137.913 17.2024 137.913 16.5C137.913 15.7976 137.765 15.1786 137.468 14.6429C137.171 14.0952 136.767 13.6726 136.256 13.375C135.745 13.0774 135.174 12.9286 134.544 12.9286C133.914 12.9286 133.344 13.0774 132.833 13.375C132.322 13.6726 131.918 14.0952 131.621 14.6429C131.324 15.1786 131.175 15.7976 131.175 16.5C131.175 17.2024 131.324 17.8274 131.621 18.375C131.918 18.9107 132.322 19.3274 132.833 19.625C133.344 19.9226 133.914 20.0714 134.544 20.0714Z" fill="#20C075"/>
    <path d="M153.275 16.2321C153.988 16.4821 154.546 16.875 154.95 17.4107C155.354 17.9345 155.556 18.5714 155.556 19.3214C155.556 20.4167 155.117 21.2619 154.237 21.8571C153.358 22.4524 152.086 22.75 150.422 22.75H143.684V10.25H150.066C151.658 10.25 152.87 10.5476 153.702 11.1429C154.534 11.7262 154.95 12.5179 154.95 13.5179C154.95 14.1131 154.802 14.6488 154.505 15.125C154.219 15.5893 153.809 15.9583 153.275 16.2321ZM147.178 12.8036V15.2143H149.602C150.791 15.2143 151.385 14.8095 151.385 14C151.385 13.2024 150.791 12.8036 149.602 12.8036H147.178ZM150.137 20.1964C151.373 20.1964 151.991 19.7738 151.991 18.9286C151.991 18.0833 151.373 17.6607 150.137 17.6607H147.178V20.1964H150.137Z" fill="#20C075"/>
    <path d="M164.034 23C162.715 23 161.526 22.7202 160.468 22.1607C159.423 21.6012 158.597 20.8274 157.991 19.8393C157.396 18.8512 157.099 17.7381 157.099 16.5C157.099 15.2619 157.396 14.1488 157.991 13.1607C158.597 12.1726 159.423 11.3988 160.468 10.8393C161.526 10.2798 162.715 10 164.034 10C165.353 10 166.535 10.2798 167.581 10.8393C168.639 11.3988 169.465 12.1726 170.059 13.1607C170.665 14.1488 170.968 15.2619 170.968 16.5C170.968 17.7381 170.665 18.8512 170.059 19.8393C169.465 20.8274 168.639 21.6012 167.581 22.1607C166.535 22.7202 165.353 23 164.034 23ZM164.034 20.0714C164.664 20.0714 165.234 19.9226 165.745 19.625C166.256 19.3274 166.66 18.9107 166.957 18.375C167.254 17.8274 167.403 17.2024 167.403 16.5C167.403 15.7976 167.254 15.1786 166.957 14.6429C166.66 14.0952 166.256 13.6726 165.745 13.375C165.234 13.0774 164.664 12.9286 164.034 12.9286C163.404 12.9286 162.833 13.0774 162.322 13.375C161.811 13.6726 161.407 14.0952 161.11 14.6429C160.813 15.1786 160.665 15.7976 160.665 16.5C160.665 17.2024 160.813 17.8274 161.11 18.375C161.407 18.9107 161.811 19.3274 162.322 19.625C162.833 19.9226 163.404 20.0714 164.034 20.0714Z" fill="#20C075"/>
    <path d="M175.656 13.0536H171.823V10.25H183V13.0536H179.185V22.75H175.656V13.0536Z" fill="#20C075"/>
</svg>

