<svg width="34" height="34" viewBox="0 0 34 34" fill="none" xmlns="http://www.w3.org/2000/svg">
<path d="M11.4086 26.5758C9.52266 24.3578 8.31406 21.0773 8.23438 17.3984V16.6016C8.31406 12.9227 9.53594 9.64219 11.4086 7.42422C13.8523 4.26328 17.4383 2.84219 21.4891 2.84219C23.9859 2.84219 26.3367 3.01484 28.3289 4.34297C25.3406 1.64688 21.3961 0.0132813 17.0664 0H17C7.61016 0 0 7.61016 0 17C0 26.1109 7.17188 33.5617 16.1898 33.9867C16.4555 34 16.7344 34 17 34C21.3563 34 25.3273 32.3664 28.3289 29.6703C26.3367 30.9984 24.1187 31.0516 21.6219 31.0516C17.5844 31.0648 13.8391 29.75 11.4086 26.5758Z" fill="url(#paint0_linear)"/>
<path d="M11.4089 7.42407C12.9628 5.57798 14.9816 4.47564 17.1863 4.47564C22.1402 4.47564 26.1511 10.0803 26.1511 17.0131C26.1511 23.9459 22.1402 29.5506 17.1863 29.5506C14.9816 29.5506 12.9761 28.435 11.4089 26.6022C13.8527 29.7631 17.4785 31.7819 21.516 31.7819C23.9996 31.7819 26.3371 31.0249 28.3292 29.6967C31.8089 26.5624 34.0003 22.0334 34.0003 16.9999C34.0003 11.9663 31.8089 7.43735 28.3292 4.32954C26.3371 3.00142 24.0128 2.24438 21.516 2.24438C17.4652 2.24438 13.8394 4.24985 11.4089 7.42407Z" fill="url(#paint1_linear)"/>
<defs>
<linearGradient id="paint0_linear" x1="14.1653" y1="0.5542" x2="14.1653" y2="33.5053" gradientUnits="userSpaceOnUse">
<stop offset="0.3" stop-color="#FF1B2D"/>
<stop offset="0.4381" stop-color="#FA1A2C"/>
<stop offset="0.5939" stop-color="#ED1528"/>
<stop offset="0.7581" stop-color="#D60E21"/>
<stop offset="0.9272" stop-color="#B70519"/>
<stop offset="1" stop-color="#A70014"/>
</linearGradient>
<linearGradient id="paint1_linear" x1="22.7024" y1="2.49634" x2="22.7024" y2="31.6398" gradientUnits="userSpaceOnUse">
<stop stop-color="#9C0000"/>
<stop offset="0.7" stop-color="#FF4B4B"/>
</linearGradient>
</defs>
</svg>
