<svg width="20" height="20" viewBox="0 0 20 20" fill="none" xmlns="http://www.w3.org/2000/svg">
<path d="M15.625 0H4.375C1.95875 0 0 1.95875 0 4.375V15.625C0 18.0413 1.95875 20 4.375 20H15.625C18.0413 20 20 18.0413 20 15.625V4.375C20 1.95875 18.0413 0 15.625 0Z" fill="#73AF00"/>
<path d="M18.1639 9.99976L10 1.83588L1.83612 9.99976L10 18.1636L18.1639 9.99976Z" fill="#FFE15A"/>
<path d="M10.0003 13.3836C11.869 13.3836 13.3839 11.8687 13.3839 10C13.3839 8.1313 11.869 6.61641 10.0003 6.61641C8.13159 6.61641 6.6167 8.1313 6.6167 10C6.6167 11.8687 8.13159 13.3836 10.0003 13.3836Z" fill="#41479B"/>
<path d="M7.09676 8.26909C6.93711 8.53631 6.81387 8.82682 6.73242 9.13518C8.60816 8.99401 11.3829 9.51873 13.149 11.2324C13.2643 10.9382 13.3404 10.6247 13.3689 10.297C11.5453 8.76233 9.02418 8.21655 7.09676 8.26909Z" fill="#F5F5F5"/>
<path d="M10.1401 11.1546L10.2302 11.4248L10.5149 11.427C10.5518 11.4272 10.5671 11.4743 10.5374 11.4962L10.3084 11.6654L10.3943 11.9368C10.4054 11.972 10.3654 12.0011 10.3354 11.9796L10.1037 11.814L9.87201 11.9796C9.84201 12.0011 9.80201 11.972 9.81311 11.9368L9.899 11.6654L9.66994 11.4962C9.64029 11.4743 9.65557 11.4273 9.69244 11.427L9.97721 11.4248L10.0673 11.1547C10.079 11.1197 10.1285 11.1197 10.1401 11.1546Z" fill="#F5F5F5"/>
<path d="M11.2468 11.8534L11.2855 11.9697L11.4081 11.9707C11.4239 11.9708 11.4305 11.9911 11.4178 12.0005L11.3192 12.0733L11.3561 12.1901C11.3609 12.2052 11.3437 12.2178 11.3308 12.2085L11.2311 12.1373L11.1313 12.2085C11.1184 12.2177 11.1012 12.2052 11.106 12.1901L11.1429 12.0733L11.0443 12.0005C11.0316 11.9911 11.0382 11.9708 11.054 11.9707L11.1766 11.9697L11.2154 11.8534C11.2205 11.8384 11.2418 11.8384 11.2468 11.8534Z" fill="#F5F5F5"/>
<path d="M9.66179 10.6415L9.70058 10.7578L9.82312 10.7587C9.83897 10.7588 9.84558 10.7791 9.8328 10.7885L9.73421 10.8613L9.77116 10.9782C9.77597 10.9933 9.75874 11.0058 9.74581 10.9966L9.64609 10.9253L9.54636 10.9966C9.53347 11.0058 9.51625 10.9933 9.52101 10.9782L9.55796 10.8613L9.45937 10.7885C9.4466 10.7791 9.4532 10.7588 9.46906 10.7587L9.5916 10.7578L9.63038 10.6415C9.63546 10.6265 9.65675 10.6265 9.66179 10.6415Z" fill="#F5F5F5"/>
<path d="M7.51478 10.5005L7.55357 10.6168L7.6761 10.6177C7.69196 10.6179 7.69856 10.6381 7.68579 10.6475L7.5872 10.7204L7.62415 10.8372C7.62892 10.8523 7.61173 10.8648 7.5988 10.8556L7.49908 10.7843L7.39935 10.8556C7.38642 10.8648 7.36923 10.8523 7.374 10.8372L7.41099 10.7204L7.3124 10.6475C7.29963 10.6381 7.30623 10.6179 7.32209 10.6177L7.44462 10.6168L7.48341 10.5005C7.48845 10.4854 7.50978 10.4854 7.51478 10.5005Z" fill="#F5F5F5"/>
<path d="M9.31068 11.8133L9.34947 11.9296L9.47204 11.9305C9.4879 11.9306 9.4945 11.9509 9.48173 11.9603L9.38314 12.0331L9.42009 12.15C9.42489 12.1651 9.40767 12.1776 9.39474 12.1684L9.29501 12.0971L9.19529 12.1684C9.1824 12.1776 9.16517 12.1651 9.16994 12.15L9.20689 12.0331L9.1083 11.9603C9.09552 11.9509 9.10213 11.9306 9.11798 11.9305L9.24052 11.9296L9.27931 11.8133C9.28439 11.7982 9.30568 11.7982 9.31068 11.8133Z" fill="#F5F5F5"/>
<path d="M8.32279 10.4194L8.35451 10.5145L8.45475 10.5152C8.46772 10.5154 8.47311 10.5319 8.46268 10.5396L8.38205 10.5992L8.41229 10.6947C8.41619 10.7071 8.40213 10.7173 8.39155 10.7098L8.31002 10.6515L8.2285 10.7098C8.21795 10.7173 8.20385 10.7071 8.20775 10.6947L8.23799 10.5992L8.15736 10.5396C8.14693 10.5319 8.15229 10.5154 8.16529 10.5152L8.26553 10.5145L8.29725 10.4194C8.30127 10.4071 8.31869 10.4071 8.32279 10.4194Z" fill="#F5F5F5"/>
<path d="M11.333 8.45687L11.3727 8.57578L11.498 8.57676C11.5142 8.57687 11.521 8.59757 11.5079 8.60722L11.4071 8.68168L11.4449 8.8012C11.4498 8.81667 11.4321 8.82948 11.4189 8.82003L11.317 8.74714L11.215 8.82003C11.2018 8.82948 11.1841 8.81667 11.189 8.8012L11.2268 8.68168L11.126 8.60722C11.113 8.59757 11.1197 8.57687 11.1359 8.57676L11.2613 8.57578L11.3009 8.45687C11.3061 8.44148 11.3279 8.44148 11.333 8.45687Z" fill="#F5F5F5"/>
<path d="M7.6534 9.83781L7.68512 9.93289L7.78535 9.93367C7.79832 9.93379 7.80371 9.95031 7.79328 9.95804L7.71265 10.0176L7.74289 10.1131C7.7468 10.1255 7.73273 10.1357 7.72215 10.1282L7.64059 10.0699L7.55906 10.1282C7.54852 10.1357 7.53441 10.1255 7.53832 10.1131L7.56855 10.0176L7.48793 9.95804C7.4775 9.95035 7.48285 9.93379 7.49586 9.93367L7.59609 9.93289L7.62781 9.83781C7.63191 9.8255 7.6493 9.8255 7.6534 9.83781Z" fill="#F5F5F5"/>
<path d="M8.13739 11.1777L8.1854 11.3217L8.33719 11.3229C8.35684 11.323 8.36501 11.3481 8.34919 11.3598L8.22708 11.45L8.27286 11.5947C8.27879 11.6134 8.25747 11.6289 8.24145 11.6175L8.11797 11.5292L7.9945 11.6175C7.97852 11.6289 7.95719 11.6134 7.96309 11.5947L8.00887 11.45L7.88676 11.3598C7.87094 11.3481 7.87911 11.323 7.89876 11.3229L8.05055 11.3217L8.09856 11.1777C8.10481 11.1591 8.13118 11.1591 8.13739 11.1777Z" fill="#F5F5F5"/>
<path d="M11.8642 11.8836L11.8944 11.9742L11.9899 11.9749C12.0022 11.975 12.0074 11.9908 11.9974 11.9981L11.9206 12.0548L11.9494 12.1459C11.9531 12.1577 11.9397 12.1674 11.9296 12.1602L11.8519 12.1047L11.7742 12.1602C11.7642 12.1674 11.7508 12.1577 11.7545 12.1459L11.7833 12.0548L11.7064 11.9981C11.6965 11.9908 11.7016 11.975 11.714 11.9749L11.8095 11.9742L11.8397 11.8836C11.8437 11.8719 11.8603 11.8719 11.8642 11.8836Z" fill="#F5F5F5"/>
<path d="M12.1984 11.1922L12.2372 11.3085L12.3597 11.3095C12.3756 11.3096 12.3822 11.3298 12.3694 11.3393L12.2708 11.4121L12.3078 11.5289C12.3126 11.5441 12.2954 11.5566 12.2824 11.5473L12.1827 11.4761L12.083 11.5473C12.0701 11.5566 12.0529 11.5441 12.0576 11.5289L12.0946 11.4121L11.996 11.3393C11.9832 11.3298 11.9898 11.3096 12.0057 11.3095L12.1282 11.3085L12.167 11.1922C12.1721 11.1772 12.1934 11.1772 12.1984 11.1922Z" fill="#F5F5F5"/>
</svg>
