<svg width="44" height="44" viewBox="0 0 44 44" fill="none" xmlns="http://www.w3.org/2000/svg">
<circle cx="22" cy="22" r="22" fill="#20C075"/>
<path d="M25.953 17.802C26.5388 18.3537 27.0036 19.0089 27.3207 19.7301C27.6378 20.4512 27.8011 21.2243 27.8011 22.005C27.8011 22.7856 27.6378 23.5587 27.3207 24.2798C27.0036 25.001 26.5388 25.6562 25.953 26.2079M17.047 26.198C16.4612 25.6463 15.9964 24.9911 15.6793 24.2699C15.3622 23.5488 15.1989 22.7757 15.1989 21.9951C15.1989 21.2144 15.3622 20.4413 15.6793 19.7202C15.9964 18.999 16.4612 18.3438 17.047 17.7921M28.9251 15C30.894 16.8567 32 19.3746 32 22C32 24.6254 30.894 27.1433 28.9251 29M14.0749 29C12.106 27.1433 11 24.6254 11 22C11 19.3746 12.106 16.8567 14.0749 15M23.6004 22C23.6004 23.0936 22.66 23.9802 21.4999 23.9802C20.3399 23.9802 19.3995 23.0936 19.3995 22C19.3995 20.9064 20.3399 20.0198 21.4999 20.0198C22.66 20.0198 23.6004 20.9064 23.6004 22Z" stroke="white" stroke-width="2" stroke-linecap="round" stroke-linejoin="round"/>
</svg>
