<svg width="27" height="25" viewBox="0 0 27 25" fill="none" xmlns="http://www.w3.org/2000/svg">
<path d="M12.7809 0.475158C13.073 -0.12411 13.927 -0.12411 14.2191 0.475158L17.4867 7.17822C17.6024 7.41547 17.8276 7.58041 18.0887 7.61905L25.4135 8.70315C26.0663 8.79977 26.328 9.60072 25.8581 10.0641L20.5466 15.3027C20.3607 15.486 20.276 15.7485 20.3196 16.0059L21.5712 23.3953C21.6821 24.0502 20.9927 24.5472 20.4064 24.235L13.876 20.7575C13.641 20.6324 13.359 20.6324 13.124 20.7575L6.59359 24.235C6.00728 24.5472 5.31788 24.0502 5.42881 23.3953L6.68044 16.0059C6.72403 15.7485 6.6393 15.486 6.45343 15.3027L1.14186 10.0641C0.671998 9.60072 0.933669 8.79977 1.58649 8.70315L8.91131 7.61905C9.17241 7.58041 9.39764 7.41547 9.5133 7.17822L12.7809 0.475158Z" fill="#FFDD3C"/>
</svg>
