<svg width="20" height="20" viewBox="0 0 20 20" fill="none" xmlns="http://www.w3.org/2000/svg">
<path d="M0.167969 3.16406C0.0585938 3.54688 0 3.95312 0 4.375V6.32031H20V4.375C20 3.95703 19.9414 3.55078 19.832 3.16406H0.167969Z" fill="#F5F5F5"/>
<path d="M0 15.625C0 16.043 0.0585938 16.4492 0.167969 16.8359H19.8281C19.9375 16.4531 19.9961 16.0469 19.9961 15.625V13.6797H0V15.625Z" fill="#F5F5F5"/>
<path d="M4.07031 19.9883H15.9297C17.7891 19.8594 19.332 18.5664 19.8281 16.832H0.167969C0.667969 18.5703 2.20703 19.8594 4.07031 19.9883Z" fill="#FF4B55"/>
<path d="M15.9297 0.011734H4.07031C2.21094 0.14064 0.667969 1.43361 0.171875 3.16798H19.832C19.332 1.4297 17.793 0.14064 15.9297 0.011734Z" fill="#FF4B55"/>
<path d="M20 6.32033H0V13.6797H20V6.32033Z" fill="#41479B"/>
</svg>
