<svg width="20" height="20" viewBox="0 0 20 20" fill="none" xmlns="http://www.w3.org/2000/svg">
<path d="M15.625 0H4.375C1.95875 0 0 1.95875 0 4.375V15.625C0 18.0413 1.95875 20 4.375 20H15.625C18.0413 20 20 18.0413 20 15.625V4.375C20 1.95875 18.0413 0 15.625 0Z" fill="#FF4B55"/>
<path d="M10.1782 5.72776L11.2002 8.79217L14.4305 8.81721C14.6111 8.81862 14.686 9.04913 14.5407 9.15643L11.9421 11.0754L12.9164 14.1552C12.9709 14.3275 12.7748 14.4699 12.6279 14.3649L9.99984 12.4865L7.3718 14.3649C7.22485 14.47 7.02875 14.3275 7.08324 14.1553L8.05762 11.0754L5.45899 9.15647C5.31368 9.04916 5.3886 8.81866 5.56922 8.81725L8.79949 8.79221L9.82152 5.7278C9.87867 5.5564 10.121 5.5564 10.1782 5.72776Z" fill="#FFE15A"/>
</svg>
